<svg xmlns="http://www.w3.org/2000/svg" viewBox="0 0 300 600">
  <!-- Phone Frame - Changed to subtle border only -->
  <rect x="0" y="0" width="300" height="600" rx="40" fill="transparent" stroke="#e2e8f0" stroke-width="2"/>
  
  <!-- Status Bar - Made semi-transparent -->
  <rect x="10" y="10" width="280" height="30" rx="15" fill="#f8fafc" fill-opacity="0.8"/>
  <circle cx="30" cy="25" r="5" fill="#2196f3"/>
  <rect x="200" y="20" width="60" height="10" rx="5" fill="#2196f3"/>
  
  <!-- Header with VitaCare Logo - Transparent background -->
  <path d="M30,70 h20 l-10,15 z" fill="#2196f3"/> <!-- Logo symbol -->
  <text x="60" y="85" font-family="Arial" font-size="16" fill="#2196f3" font-weight="bold">VitaCare Medical Center</text>
  
  <!-- Hero Section - Semi-transparent background -->
  <rect x="20" y="120" width="260" height="80" rx="10" fill="#f8fafc" fill-opacity="0.8"/>
  <text x="40" y="150" font-family="Arial" font-size="18" fill="#2196f3" font-weight="bold">Cuidamos de tu Salud</text>
  <text x="40" y="175" font-family="Arial" font-size="14" fill="#64748b">Con Dedicación y Excelencia</text>
  
  <!-- Quick Actions -->
  <rect x="20" y="220" width="260" height="60" rx="10" fill="#2196f3"/>
  <text x="40" y="255" font-family="Arial" font-size="14" fill="#ffffff">Agenda tu cita hoy mismo</text>
  
  <!-- Services Grid - Semi-transparent cards -->
  <rect x="20" y="300" width="120" height="100" rx="10" fill="#f8fafc" fill-opacity="0.8" stroke="#e2e8f0" stroke-width="1"/>
  <text x="40" y="340" font-family="Arial" font-size="12" fill="#2196f3">Consulta General</text>
  <text x="40" y="365" font-family="Arial" font-size="12" fill="#64748b">$50.000 COP</text>
  
  <rect x="160" y="300" width="120" height="100" rx="10" fill="#f8fafc" fill-opacity="0.8" stroke="#e2e8f0" stroke-width="1"/>
  <text x="180" y="330" font-family="Arial" font-size="11" fill="#2196f3">Consulta</text>
  <text x="180" y="345" font-family="Arial" font-size="11" fill="#2196f3">Especializada</text>
  <text x="180" y="365" font-family="Arial" font-size="12" fill="#64748b">$90.000 COP</text>
  
  <!-- Plan Section -->
  <rect x="20" y="420" width="260" height="80" rx="10" fill="#f8fafc" fill-opacity="0.8" stroke="#e2e8f0" stroke-width="1"/>
  <text x="40" y="450" font-family="Arial" font-size="14" fill="#2196f3" font-weight="bold">Plan Familiar</text>
  <text x="40" y="475" font-family="Arial" font-size="12" fill="#64748b">Desde $150.000 COP</text>
  
  <!-- Bottom Navigation - Semi-transparent -->
  <rect x="10" y="540" width="280" height="50" rx="25" fill="#f8fafc" fill-opacity="0.8" stroke="#e2e8f0" stroke-width="1"/>
  <circle cx="60" cy="565" r="15" fill="#2196f3"/>
  <circle cx="150" cy="565" r="15" fill="#2196f3" opacity="0.6"/>
  <circle cx="240" cy="565" r="15" fill="#2196f3" opacity="0.6"/>
</svg>
